<svg id="Capa_1" enable-background="new 0 0 512 512" height="512" viewBox="0 0 512 512" width="512" xmlns="http://www.w3.org/2000/svg" xmlns:xlink="http://www.w3.org/1999/xlink"><linearGradient id="SVGID_1_" gradientUnits="userSpaceOnUse" x1="228.122" x2="228.122" y1="510.301" y2=".5"><stop offset="0" stop-color="#5558ff"/><stop offset="1" stop-color="#00c0ff"/></linearGradient><linearGradient id="SVGID_2_" gradientUnits="userSpaceOnUse" x1="256" x2="256" y1="511.5" y2=".5"><stop offset="0" stop-color="#addcff"/><stop offset=".5028" stop-color="#eaf6ff"/><stop offset="1" stop-color="#eaf6ff"/></linearGradient><g><g><g><path d="m450.399 413.7c-.601-4.199-2.999-8.099-6.599-10.5l-54.6-36-28.801-114.3c-1.199-5.1-4.799-9-9.6-10.5l-73.5-24.6 22.2-44.7c1.501-3.301 2.1-7.202.901-10.801l-42.6-150.985c-1.8-6.599-7.5-11.1-15.3-10.799-92.4 4.799-171.601 60.087-212.1 137.185l15.6 88.8-40.201 80.1c15.301 75.901 64.201 139.5 130.201 174.9l105-15 39.3 43.801c63.9-6 123.6-36 166.199-84.601 3-3.299 4.201-7.5 3.9-12z" fill="url(#SVGID_1_)"/></g></g><g><g><path d="m444.027 148.282c4.424-2.739 7.119-7.559 7.119-12.759v-120c0-4.614-2.124-8.979-5.771-11.821-3.662-2.842-8.394-3.911-12.861-2.725l-120 30c-6.68 1.67-11.367 7.661-11.367 14.546v30c0 5.684 3.208 10.869 8.291 13.418l120 60c4.746 2.357 10.26 2.034 14.589-.659zm67.901 106.609c-.439-4.468-2.871-8.511-6.606-11.001l-90-60c-5.156-3.442-11.895-3.369-16.963.22-5.068 3.574-7.412 9.888-5.903 15.894l30 120c1.304 5.244 5.332 9.375 10.547 10.825 5.087 1.413 10.704.047 14.604-3.853l60-60c3.178-3.179 4.76-7.618 4.321-12.085zm-345.779 76.476c8.284 0 15-6.716 15-15s-6.716-15-15-15-15 6.716-15 15 6.716 15 15 15zm89.997-59.997c-24.814 0-45 20.186-45 45s20.186 45 45 45 45-20.186 45-45-20.185-45-45-45zm-225.747-133.671c-18.599 35.402-30.399 75.901-30.399 118.801 0 17.1 2.8 33.9 5.799 50.1 12 6.301 25.799 9.9 40.201 9.9 49.799 0 90-40.499 90-90 0-54.9-48.9-98.399-105.601-88.801zm180.601 268.801c-41.4 0-75 33.6-75 75 35.7 19.2 76.5 30 120 30 8.099 0 16.199-.3 24.3-1.199 3.6-9 5.7-18.6 5.7-28.801 0-41.7-33.301-75-75-75z" fill="url(#SVGID_2_)"/></g></g></g></svg>